<svg width="375" height="423" xmlns="http://www.w3.org/2000/svg" xmlns:xlink="http://www.w3.org/1999/xlink">
 <defs>
  <filter filterUnits="objectBoundingBox" y="-28.8%" x="-10.8%" height="158.7%" width="116.9%" id="a">
  </filter>
  <path d="m42.46,162.61l70.744,70.76a100,100 0 0 0 70.719,29.298l11.03,0a100,100 0 0 1 70.719,29.298l75.718,75.736a100,100 0 0 0 70.719,29.298l221.671,0c27.507,0 49.805,-22.299 49.805,-49.805a49.805,49.805 0 0 0 -14.583,-35.213l-52.835,-52.848c-7.359,-7.36 -7.357,-19.294 0.003,-26.653a18.846,18.846 0 0 1 13.325,-5.518c10.408,0 18.846,-8.438 18.846,-18.846c0,-4.997 -1.985,-9.79 -5.518,-13.325l-108.076,-108.101a100,100 0 0 0 -70.72,-29.298l-112.014,0a97.948,97.948 0 0 1 -69.267,-28.696a97.948,97.948 0 0 0 -69.269,-28.697l-128.537,0c-19.435,0 -35.19,15.755 -35.19,35.19a35.19,35.19 0 0 0 10.304,24.88l17.596,17.599c9.715,9.717 9.713,25.47 -0.004,35.185a24.88,24.88 0 0 1 -17.59,7.285c-13.742,0 -24.88,11.14 -24.88,24.88a24.88,24.88 0 0 0 7.284,17.59l0,0.001z" id="b"/>
  <linearGradient y2="63.745%" y1="36.139%" x2="99.58%" x1="0%" id="c">
   <stop stop-color="#33D35E" offset="0%"/>
   <stop stop-color="#2AB6D9" offset="100%"/>
  </linearGradient>
 </defs>
 <g>
  <title>Layer 1</title>
  <g stroke="null" id="svg_1" fill-rule="evenodd" fill="none">
   <use stroke="null" transform="matrix(1.12563 0 0 1.12563 7.38995 -23.8054)" id="svg_2" x="-94" y="-1.06132" xlink:href="#b" filter="url(#a)" fill="#000"/>
   <use stroke="null" transform="matrix(1.12563 0 0 1.12563 7.38995 -23.8054)" id="svg_3" x="-94" y="-1.06132" xlink:href="#b" fill="#2D314D"/>
   <path stroke="null" id="svg_4" d="m190.25951,159.16402l79.63144,79.64945a112.56282,112.56282 0 0 0 79.6033,32.97866l12.41568,0a112.56282,112.56282 0 0 1 79.6033,32.97866l85.23032,85.25058a112.56282,112.56282 0 0 0 79.6033,32.97866l249.51913,0c30.96266,0 56.06191,-25.10038 56.06191,-56.06191a56.06191,56.06191 0 0 0 -16.41504,-39.63675l-59.47257,-59.4872c-8.2835,-8.28462 -8.28125,-21.71787 0.00338,-30.00137a21.21359,21.21359 0 0 1 14.999,-6.21122c11.71554,0 21.21359,-9.49805 21.21359,-21.21359c0,-5.62476 -2.23437,-11.0199 -6.21122,-14.999l-121.6534,-121.68154a112.56282,112.56282 0 0 0 -79.60443,-32.97866l-126.08612,0a110.25303,110.25303 0 0 1 -77.96889,-32.30103a110.25303,110.25303 0 0 0 -77.97114,-32.30215l-144.68487,0c-21.87658,0 -39.61086,17.73427 -39.61086,39.61086a39.61086,39.61086 0 0 0 11.59847,28.00563l19.80543,19.80993c10.93548,10.93773 10.93323,28.66975 -0.0045,39.60523a28.00563,28.00563 0 0 1 -19.7998,8.2002c-15.46838,0 -28.00563,12.5395 -28.00563,28.00563a28.00563,28.00563 0 0 0 8.19908,19.7998l0.00113,0.00113z" fill="url(#c)"/>
  </g>
 </g>
</svg>
