<?xml version="1.0" encoding="UTF-8" standalone="no"?>
<!-- Created with Inkscape (http://www.inkscape.org/) -->

<svg
   width="351.7785mm"
   height="253.66701mm"
   viewBox="0 0 351.7785 253.66701"
   version="1.1"
   id="svg322"
   inkscape:version="1.1.2 (b8e25be8, 2022-02-05)"
   sodipodi:docname="desktopBg.svg"
   xmlns:inkscape="http://www.inkscape.org/namespaces/inkscape"
   xmlns:sodipodi="http://sodipodi.sourceforge.net/DTD/sodipodi-0.dtd"
   xmlns="http://www.w3.org/2000/svg"
   xmlns:svg="http://www.w3.org/2000/svg">
  <sodipodi:namedview
     id="namedview324"
     pagecolor="#ffffff"
     bordercolor="#666666"
     borderopacity="1.0"
     inkscape:pageshadow="2"
     inkscape:pageopacity="0.0"
     inkscape:pagecheckerboard="0"
     inkscape:document-units="mm"
     showgrid="false"
     inkscape:zoom="0.57905443"
     inkscape:cx="524.13035"
     inkscape:cy="455.91569"
     inkscape:window-width="1312"
     inkscape:window-height="872"
     inkscape:window-x="0"
     inkscape:window-y="0"
     inkscape:window-maximized="0"
     inkscape:current-layer="layer1" />
  <defs
     id="defs319">
    <linearGradient
       id="c"
       x1="152.97372"
       x2="979.03711"
       y1="299.85651"
       y2="528.72034"
       gradientTransform="matrix(0.37522544,0,0,0.20759149,-168.56078,-34.991961)"
       gradientUnits="userSpaceOnUse">
      <stop
         offset="0%"
         stop-color="#33D35E"
         id="stop107" />
      <stop
         offset="100%"
         stop-color="#2AB6D9"
         id="stop109" />
    </linearGradient>
  </defs>
  <g
     inkscape:label="Layer 1"
     inkscape:groupmode="layer"
     id="layer1"
     transform="translate(151.67232,34.991961)">
    <path
       id="use124"
       d="m -148.17456,117.00658 39.4206,35.62801 a 29.355923,26.534205 0 0 0 20.756988,7.7708 h 20.752583 a 29.355923,26.534205 0 0 1 20.756986,7.77108 L 0.78737504,210.9037 A 29.355923,26.534205 0 0 0 21.54348,218.67504 h 114.15139 c 13.19959,0 23.90012,-9.67172 23.90012,-21.60256 a 23.899831,21.602558 0 0 0 -7.0008,-15.27574 L 127.23302,158.8749 c -3.5324,-3.19259 -3.53269,-8.36889 0,-11.56201 a 9.045147,8.1757192 0 0 1 6.39607,-2.39472 c 4.9955,0 9.04515,-3.66039 9.04515,-8.17571 0,-2.16838 -0.95289,-4.24813 -2.64937,-5.78128 L 82.681887,79.134308 A 29.355923,26.534205 0 0 0 61.924901,71.363236 H -6.897712 a 29.355923,26.534205 0 0 1 -20.756986,-7.771073 l -10.348844,-9.353307 a 29.355923,26.534205 0 0 0 -20.756692,-7.770808 h -69.031036 c -9.32609,0 -16.88641,6.83362 -16.88641,15.263271 a 16.886408,15.263271 0 0 0 4.94647,10.793053 l 8.44306,7.631238 c 4.66348,4.214693 4.66377,11.048843 8.8e-4,15.263801 a 11.940815,10.793053 0 0 1 -8.44394,3.161551 c -6.59481,0 -11.94111,4.832148 -11.94111,10.793048 a 11.940815,10.793053 0 0 0 3.49776,7.6323 z"
       style="fill:#2d314d;stroke-width:0.279094" />
    <path
       fill="url(#c)"
       d="m -107.66339,35.54657 39.420606,35.628007 a 29.355923,26.534205 0 0 0 20.756986,7.770808 h 20.752582 a 29.355923,26.534205 0 0 1 20.7569864,7.771072 L 41.298549,129.44369 a 29.355923,26.534205 0 0 0 20.756105,7.77134 H 176.20604 c 13.1996,0 23.90013,-9.67172 23.90013,-21.60256 a 23.899831,21.602558 0 0 0 -7.0008,-15.27574 L 167.7442,77.414892 c -3.5324,-3.192596 -3.5327,-8.368889 0,-11.562015 a 9.045147,8.1757192 0 0 1 6.39607,-2.394712 c 4.99549,0 9.04514,-3.660393 9.04514,-8.175719 0,-2.168375 -0.95289,-4.248126 -2.64937,-5.781273 L 123.19306,-2.3257012 A 29.355923,26.534205 0 0 0 102.43607,-10.096774 H 33.613462 A 29.355923,26.534205 0 0 1 12.856476,-17.867846 L 2.5076321,-27.221154 A 29.355923,26.534205 0 0 0 -18.24906,-34.991961 H -87.2801 c -9.326084,0 -16.88641,6.833619 -16.88641,15.263271 a 16.886408,15.263271 0 0 0 4.946475,10.793053 l 8.443057,7.6312373 c 4.663482,4.2146931 4.663776,11.048843 8.81e-4,15.2638017 a 11.940815,10.793053 0 0 1 -8.443938,3.16155 c -6.594805,0 -11.941105,4.832144 -11.941105,10.793054 a 11.940815,10.793053 0 0 0 3.49775,7.632298 z"
       id="path126"
       style="fill:url(#c);stroke-width:0.279094" />
  </g>
</svg>
